<svg xmlns="http://www.w3.org/2000/svg" width="179.572" height="32.853" viewBox="0 0 179.572 32.853">
  <g id="グループ_2374" data-name="グループ 2374" transform="translate(-0.6 -1.6)">
    <path id="パス_1209" data-name="パス 1209" d="M53.5,14.348c0-.447.112-1.788.112-1.788h-2.57a1.661,1.661,0,0,1-.112.67c0,.223-.223,2.347-.223,2.458s-.112,1.453-.112,1.676h2.794C53.391,17.142,53.5,14.348,53.5,14.348Zm-.335,5.922c0-.223.112-2.347.112-2.347H50.374l-.559,5.252h3.017A18.979,18.979,0,0,0,53.168,20.271ZM47.357,14.8c0-.112.223-2.235.223-2.235H45.01c0,.112-.223,1.229-.223,1.453s-.223,1.341-.223,1.453-.223,1.788-.223,1.788h2.794C47.133,17.142,47.357,14.907,47.357,14.8Zm-.559,5.7c0-.335.223-2.347.223-2.57H44.228c0,.112-.335,2.123-.335,2.458s-.223,1.341-.223,1.564-.112,1.117-.112,1.229h3.017S46.8,20.829,46.8,20.494Zm13.521-2.905a.245.245,0,0,1-.112.335.346.346,0,0,1-.223.112H56.632v.67c0,.335-.112,1.341-.112,1.564a18.942,18.942,0,0,0-.112,2.458c0,.112.112,0,.112,0s1.006-1.229,1.117-1.453c.112-.112.223,0,.335,0l1.117,1.117.894.894a.34.34,0,0,1,0,.447,1.592,1.592,0,0,1-.447.223H56.408c-.112,0-.112,0-.112.112a4.994,4.994,0,0,1-.223,1.229,3.044,3.044,0,0,1-.894,1.9,2.946,2.946,0,0,1-1.788.782A14.377,14.377,0,0,1,50.6,28.2c-.112,0-.223-.112-.335-.223a4.56,4.56,0,0,0-1.006-1.9,3.727,3.727,0,0,0-1.117-.782v-.112c0-.112,0-.112.223-.112h3.464c.67,0,.67-.223.782-.447a2.182,2.182,0,0,0,.112-.782h-9.5A7.691,7.691,0,0,1,43,25.3c-.112.335-.67.335-.894.447H40.652a3.447,3.447,0,0,1-1.006-.112c-.335-.112-.223-.67-.223-.782.112-.447,1.117-6.816,1.117-6.816,0-.112,0-.112-.112-.112H37.635c-.223,0-.223,0-.223-.112s-.112-.447-.112-.559v-.112h.447c.335,0,2.794.112,2.794.112s.223-1.676.335-2.011a21.613,21.613,0,0,1,.447-3.017c0-.112,0-.112-.112,0s-.447.447-1.341,1.229a25.187,25.187,0,0,1-2.123,1.676.552.552,0,0,1-.335.112c-.112-.112,0-.223.112-.335a4.9,4.9,0,0,0,.559-1.006c.112-.223.559-1.117.894-1.676.559-1.229,1.453-3.576,1.564-3.688,0-.112.559-1.564.559-1.676s.447-1.341.447-1.453.223-.112.223,0a1.126,1.126,0,0,1,.335.112,10.341,10.341,0,0,1,1.117.335,19.081,19.081,0,0,1,2.011.782c.223.112.447.223.447.447s-.335.223-.335.223a.854.854,0,0,0-.559.223c-.112.112-.559,1.006-.67,1.117s0,.223.112.223H55.179l.112-.223c.112-.112,1.229-1.564,1.453-1.788.112-.112.335,0,.335,0a15.09,15.09,0,0,0,1.229,1.006,12.455,12.455,0,0,1,1.117,1.006c.223.223.112.335.112.447s-.223.112-.447.112H43.781c-.112,0-.112,0-.223.112a13.956,13.956,0,0,0-1.006,1.341c-.112.112-.112.112,0,.223a11.636,11.636,0,0,1,1.341.559,7.7,7.7,0,0,0,1.117.447h8.269A.109.109,0,0,0,53.391,12l.559-.559.67-.67c.112-.112.335,0,.447,0,.112.112,1.229.894,1.341,1.006s.67.447,1.006.67.223.447.112.447c-.112.112-.447.223-.559.335s-.223.112-.223.223v.894c0,.223-.112,2.682-.112,2.682a16.425,16.425,0,0,0,1.117-1.453.155.155,0,0,1,.223,0c.112,0,.559.559.559.559l1.229,1.229C60.1,17.254,60.207,17.365,60.319,17.589Zm8.269,7.263V16.918h8.6c0,.112.112,7.934.112,7.934Zm.112-8.6h8.492V8.873h-8.6v7.375ZM81.886,8.761c-.223-.112-1.006-.782-1.229-.894-.112-.112-1.341-.894-1.453-1.006s-.224-.112-.224-.223c-.112,0-.223-.112-.335,0s-.894,1.006-1.006,1.117c-.223.112-.447.335-.447.447H70.041a5.042,5.042,0,0,1-1.453-.112,17.4,17.4,0,0,1-1.676-.67,11.466,11.466,0,0,0-1.564-.447c-.112,0-.447-.112-.447,0v8.6c0,.335-.112,7.152-.112,7.822,0,.559-.112,3.464,0,3.576,0,.223.112.559.67.559s1.788-.112,2.235-.112c.447-.112.782-.112.782-.67a11.639,11.639,0,0,1,.112-1.229H77.3v1.341a.552.552,0,0,0,.112.335c0,.112.112.335.447.335h.782c.112,0,1.564-.112,1.788-.112.112,0,.335-.112.447-.112a.581.581,0,0,0,.223-.447V10.214a1.007,1.007,0,0,1,.112-.559A3.4,3.4,0,0,1,82,9.1c-.112,0,0-.223-.112-.335Zm7.822,5.922a3.215,3.215,0,0,0,.67-.447,1.464,1.464,0,0,0,.223-1.453,4.548,4.548,0,0,0-2.235-2.458,1.638,1.638,0,0,0-.447-.223H92.5a.109.109,0,0,1,.112.112A26.973,26.973,0,0,1,91.607,14.8h-1.9Zm5.811,9.386a1.678,1.678,0,0,0,1.006-1.564,2.327,2.327,0,0,0-1.229-1.9,12.021,12.021,0,0,0-2.347-1.229.109.109,0,0,1-.112-.112v-.447h3.688c.112,0,.335,0,.335-.112.112-.112.112-.112-.112-.447-.223-.223-1.676-1.564-1.788-1.676a.155.155,0,0,0-.223,0,19.1,19.1,0,0,0-1.229,1.564l-.112.112h-.447c-.112,0,0-.112,0-.112V15.242h3.8c.223,0,.335-.112.335-.223a.39.39,0,0,0-.112-.223,23.589,23.589,0,0,1-1.676-1.676.214.214,0,0,0-.335.112s-.894,1.117-1.117,1.341l-.223.223H92.389a19.976,19.976,0,0,0,1.453-1.564c.223-.223,1.117-1.229,1.229-1.341s.67-.782.67-.782V11l-.112-.112s-1.788-.67-1.9-.67h0s2.905.112,3.017.112c.223,0,.223-.112.335-.223a.155.155,0,0,0,0-.223l-.335-.335-.782-.782a6.388,6.388,0,0,0-.894-.894.155.155,0,0,0-.223,0l-.223.223c-.112.112-1.006,1.229-1.117,1.341l-.112.112h-.559V9.432s.112-1.341.112-1.788.112-.447.112-.559c.112-.112.223-.112.335-.223a.21.21,0,0,0,0-.335c-.112-.112-.447-.112-.447-.112-.894-.223-3.352-.335-3.576-.447a.109.109,0,0,0-.112.112s.112.782.112,1.006a4.583,4.583,0,0,0,.112,1.229V9.432H86.02c-.223,0-.112,0-.112.112s.112.447.112.559h1.341a10.548,10.548,0,0,1,.335,1.006,9.915,9.915,0,0,1,.335,1.564,10.773,10.773,0,0,0,.223,1.341,1.209,1.209,0,0,0,.447.67V14.8c-.223,0-2.905-.112-2.905-.112a4.84,4.84,0,0,0,.112.559h3.576v3.017H85.908a.109.109,0,0,0-.112.112,2.535,2.535,0,0,1,.112.447s0,.112.223.112h2.347s.112,0,0,.112c-.112.447-.894,2.235-1.229,3.017a29.4,29.4,0,0,1-2.011,3.576c-.112.112-.112.223,0,.223s.223-.112.335-.112c.112-.112.335-.223.782-.559s1.006-.782,1.341-1.006l1.564-1.564c.112-.112.112,0,.112,0s.112,2.57.112,2.682a14.835,14.835,0,0,0,0,2.235c0,.447.447.447.782.447H91.5a3.849,3.849,0,0,0,1.006-.112c.335-.112.447-.559.447-.559V20.382a1.944,1.944,0,0,1,.335.782c.112.447.335.894.559,1.9a1.33,1.33,0,0,0,.447.894A2.323,2.323,0,0,0,95.518,24.07Z" transform="translate(4.31 0.437)" fill="#231916" fill-rule="evenodd"/>
    <path id="パス_1210" data-name="パス 1210" d="M101.867,14.251l-.67-.67c-.112-.112-.67-.559-.67-.67-.112-.112-.559-.559-.67-.559-.112-.112-.223-.223-.335-.223s-.223-.112-.335,0-.67.782-.782.894-.447.559-.559.67c0,.112-.559.67-.559.67H94.492v-4.8H94.6c.112,0,1.676-.112,1.9-.112,0,0,2.458-.223,3.017-.335a18.382,18.382,0,0,0,2.011-.335c.112-.112.112-.112,0-.223l-1.117-1.117a5.667,5.667,0,0,1-.782-.67c-.112-.112-.782-.559-.782-.559-.112-.112-.335,0-.335,0-.559.447-2.905,2.011-3.911,2.57a.865.865,0,0,1-.335-.112l-2.011-.67a5.027,5.027,0,0,0-.894-.223c-.112,0-.223,0-.223.112s.112,3.017.223,5.252v4.8a28.259,28.259,0,0,1-.67,5.475A15.958,15.958,0,0,1,89.8,26.1c-.112.223-.559,1.006-.67,1.229a1.382,1.382,0,0,1-.223.335s-.112.112,0,.112l.112.112a.346.346,0,0,0,.223-.112,14.381,14.381,0,0,0,2.011-1.564,11.942,11.942,0,0,0,1.676-2.123,11.035,11.035,0,0,0,1.453-3.911,23.993,23.993,0,0,0,.335-3.8V14.809H96.28V26.878c0,.223-.112,1.006.447,1.006s1.9-.112,2.123-.112.894,0,.894-.67V14.809a.109.109,0,0,1,.112-.112h1.9a.446.446,0,0,0,.447-.223c-.112-.112-.224-.223-.335-.223m20.9,9.945s0,.223-.112.223-.223.112-.447.112h-1.676V16.709a.109.109,0,0,1,.112-.112h1.453a.109.109,0,0,0,.112-.112v-.112a.109.109,0,0,0-.112-.112s-.335-.223-.335-.335c-.112,0-.447-.447-.559-.447a3.479,3.479,0,0,0-.67-.447,1.607,1.607,0,0,0-.335-.223s-.112,0,0-.112a1.126,1.126,0,0,0,.112-.335v-.447h2.57V24.084C122.763,23.749,122.763,24.2,122.763,24.2Zm-2.57-11.063h2.57V11.01h-2.57Zm-.112-2.794h2.57V8.217h-2.57ZM117.511,22.3h0c-.112,0-2.458.223-2.57.223h-.112V20.732h2.682V22.3Zm-2.57-2.123h2.57V18.609h-2.57Zm0-2.123h2.57V16.486h-2.57ZM126.674,8.1l-.782-.559c-.112-.112-1.676-1.229-1.676-1.229a.155.155,0,0,0-.223,0l-.559.559s-.559.67-.67.67h-2.458a.411.411,0,0,1-.335-.112,4.394,4.394,0,0,1-.67-.223,8.487,8.487,0,0,0-1.229-.447,6.021,6.021,0,0,1-1.117-.335.109.109,0,0,0-.112.112v7.71a.328.328,0,0,0,.335.335c.447,0,2.011-.112,2.011-.112v.112l-.894,1.117h-8.046v.112l.112.447.112.112h1.341V22.52H110.36c-.112,0,0,.112,0,.223a2.868,2.868,0,0,1,.223.559,3.345,3.345,0,0,0,.447.894,5.22,5.22,0,0,0,.559,1.117.109.109,0,0,0,.112.112h.112a1.125,1.125,0,0,1,.335-.112,3.969,3.969,0,0,0,1.006-.447,2.761,2.761,0,0,1,1.006-.447,2.761,2.761,0,0,1,1.006-.447,5.989,5.989,0,0,1,1.229-.559,6.635,6.635,0,0,0,.894-.447v3.352a.39.39,0,0,1,.112.223h1.564a1.417,1.417,0,0,0,.67-.112c.335,0,.335-.112.447-.223a.346.346,0,0,0,.112-.223V24.978c0-.112,0-.112.335,0a6.623,6.623,0,0,1,.67.447c.335.223.559.894.67,1.006a10.343,10.343,0,0,1,.335,1.117c.112.223.112.223.224.223h.559a3.28,3.28,0,0,0,1.117-.335l.894-.447a3.542,3.542,0,0,0,.559-.67,2.573,2.573,0,0,0,.335-1.006V9.111c0-.112,0-.112.112-.223s.223-.223.335-.223.112-.112.223-.112l.112-.112q.335,0,0-.335Z" transform="translate(10.364 0.535)" fill="#231916" fill-rule="evenodd"/>
    <path id="パス_1211" data-name="パス 1211" d="M107.881,13.116h2.57V10.993h-2.57Zm0-4.917s2.235-.112,2.458-.112a.109.109,0,0,1,.112.112v2.235h-2.57Zm2.57,6.034c0,.112.112.335.223.335h.559a5.011,5.011,0,0,0,1.229-.112c.223,0,.559,0,.559-.112.112,0,.335-.112.335-.559V9.205a.4.4,0,0,1,.223-.335l.223-.112c.112,0,.223-.223.335-.223.112-.112.112-.223-.112-.447a8.229,8.229,0,0,1-.67-.559c-.223-.223-.782-.559-.894-.67s-.447-.335-.559-.447-.112-.112-.223-.112h-.112s-.223.223-.335.223-.335.447-.447.447l-.447.447a.109.109,0,0,1-.112.112h-2.682a4.394,4.394,0,0,1-.67-.223c-.223-.112-.67-.223-.894-.335a3.455,3.455,0,0,0-.894-.223,4.839,4.839,0,0,1-.559-.112h-.224c-.112,0,0,0,0,.112v20.9a.446.446,0,0,0,.224.447c.223.112.223.112.335.112h1.006c.335,0,1.117-.112,1.229-.112s.335-.112.447-.447V13.9h2.57C110.451,13.675,110.451,14.122,110.451,14.234Z" transform="translate(12.173 0.552)" fill="#231916" fill-rule="evenodd"/>
    <path id="パス_1212" data-name="パス 1212" d="M17.25,34.453a16.427,16.427,0,1,0,0-32.853A16.573,16.573,0,0,0,.6,18.026,16.573,16.573,0,0,0,17.25,34.453" transform="translate(0 0)" fill="#0078c6" fill-rule="evenodd"/>
    <path id="パス_1213" data-name="パス 1213" d="M17.191,29.019c8.828,0,15.979-5.14,15.979-11.51S26.019,6,17.191,6,1.1,11.14,1.1,17.51s7.263,11.51,16.091,11.51" transform="translate(0.059 0.517)" fill="#fefefe" fill-rule="evenodd"/>
    <path id="パス_1214" data-name="パス 1214" d="M16.745,29.243A11.623,11.623,0,1,0,4.9,17.51,11.708,11.708,0,0,0,16.745,29.243" transform="translate(0.505 0.517)" fill="#0078c6" fill-rule="evenodd"/>
    <path id="パス_1215" data-name="パス 1215" d="M16.768,23.833c6.593,0,12.068-3.017,12.068-6.816S23.473,10.2,16.768,10.2C10.175,10.2,4.7,13.217,4.7,17.016s5.364,6.816,12.068,6.816" transform="translate(0.481 1.01)" fill="#fefefe" fill-rule="evenodd"/>
    <path id="パス_1216" data-name="パス 1216" d="M16.263,24.191A7.1,7.1,0,1,0,9,17.04a7.226,7.226,0,0,0,7.263,7.152" transform="translate(0.986 0.986)" fill="#0078c6" fill-rule="evenodd"/>
    <path id="パス_1217" data-name="パス 1217" d="M14.864,15.011s1.006-1.9,1.006-2.011l1.006,2.011,2.235.335-1.564,1.564v.223l.335,2.123c-.112,0-1.9-1.006-1.9-1.006h-.223c-.112.112-2.011,1.006-2.011,1.006l.335-2.235a.109.109,0,0,0-.112-.112c-.112-.112-1.564-1.453-1.564-1.453h0A16.03,16.03,0,0,0,14.864,15.011Z" transform="translate(1.38 1.339)" fill="#fefefe" fill-rule="evenodd"/>
    <path id="パス_1218" data-name="パス 1218" d="M164.776,18.026a16.538,16.538,0,1,0-16.65,16.426,16.573,16.573,0,0,0,16.65-16.426Z" transform="translate(15.395 0)" fill="#0078c6" fill-rule="evenodd"/>
    <path id="パス_1219" data-name="パス 1219" d="M148.079,29.019c8.828,0,15.979-5.14,15.979-11.51S156.907,6,148.079,6,132.1,11.14,132.1,17.51s7.152,11.51,15.979,11.51" transform="translate(15.442 0.517)" fill="#fefefe" fill-rule="evenodd"/>
    <path id="パス_1220" data-name="パス 1220" d="M147.645,29.243A11.805,11.805,0,0,0,159.49,17.621a11.847,11.847,0,0,0-23.69,0,11.879,11.879,0,0,0,11.845,11.621" transform="translate(15.877 0.517)" fill="#0078c6" fill-rule="evenodd"/>
    <path id="パス_1221" data-name="パス 1221" d="M147.668,23.833c6.593,0,12.068-3.017,12.068-6.816S154.373,10.2,147.668,10.2c-6.593,0-12.068,3.017-12.068,6.816.112,3.8,5.475,6.816,12.068,6.816" transform="translate(15.853 1.01)" fill="#fefefe" fill-rule="evenodd"/>
    <path id="パス_1222" data-name="パス 1222" d="M147.152,24.191A7.13,7.13,0,0,0,154.3,17.04,7.036,7.036,0,0,0,147.152,10a7.1,7.1,0,1,0,0,14.191" transform="translate(16.37 0.986)" fill="#0078c6" fill-rule="evenodd"/>
    <path id="パス_1223" data-name="パス 1223" d="M145.864,15.011s1.006-1.9,1.006-2.011l1.006,2.011,2.235.335-1.564,1.564v.223l.335,2.123c-.112,0-1.9-1.006-1.9-1.006h-.223c-.112.112-2.011,1.006-2.011,1.006l.335-2.235a.109.109,0,0,0-.112-.112c-.112-.112-1.564-1.453-1.564-1.453h0A18.95,18.95,0,0,0,145.864,15.011Z" transform="translate(16.764 1.339)" fill="#fefefe" fill-rule="evenodd"/>
  </g>
</svg>
